<svg width="230" height="46" viewBox="0 0 230 46" fill="none" xmlns="http://www.w3.org/2000/svg">
<path d="M34.1422 11.8578C30.3647 8.08031 25.3422 6 20 6C14.6578 6 9.63531 8.08031 5.85781 11.8578C2.08031 15.6353 0 20.6578 0 26C0 31.3422 2.08039 36.3646 5.85781 40.1422C9.63523 43.9198 14.6578 46 20 46C25.3422 46 30.3647 43.9197 34.1422 40.1422C37.9197 36.3647 40 31.3422 40 26C40 20.6578 37.9196 15.6354 34.1422 11.8578Z" fill="#33CC95"/>
<g clip-path="url(#clip0_35212_417)">
<path d="M20.5714 14V39.1429" stroke="white" stroke-width="2" stroke-linecap="round" stroke-linejoin="round"/>
<path d="M26.2857 18.5714H17.7143C16.6534 18.5714 15.636 18.9929 14.8859 19.743C14.1357 20.4931 13.7143 21.5106 13.7143 22.5714C13.7143 23.6323 14.1357 24.6497 14.8859 25.3999C15.636 26.15 16.6534 26.5714 17.7143 26.5714H23.4286C24.4894 26.5714 25.5069 26.9929 26.257 27.743C27.0072 28.4932 27.4286 29.5106 27.4286 30.5714C27.4286 31.6323 27.0072 32.6497 26.257 33.3999C25.5069 34.15 24.4894 34.5714 23.4286 34.5714H13.7143" stroke="white" stroke-width="2" stroke-linecap="round" stroke-linejoin="round"/>
</g>
<path d="M68.5689 16.95C70.2189 16.95 71.5523 17.475 72.5689 18.525C73.5856 19.5583 74.0939 21.0083 74.0939 22.875V31H70.5939V23.35C70.5939 22.25 70.3189 21.4083 69.7689 20.825C69.2189 20.225 68.4689 19.925 67.5189 19.925C66.5523 19.925 65.7856 20.225 65.2189 20.825C64.6689 21.4083 64.3939 22.25 64.3939 23.35V31H60.8939V17.15H64.3939V18.875C64.8606 18.275 65.4523 17.8083 66.1689 17.475C66.9023 17.125 67.7023 16.95 68.5689 16.95ZM80.9223 19.15C81.3723 18.5167 81.9889 17.9917 82.7723 17.575C83.5723 17.1417 84.4806 16.925 85.4973 16.925C86.6806 16.925 87.7473 17.2167 88.6973 17.8C89.6639 18.3833 90.4223 19.2167 90.9723 20.3C91.5389 21.3667 91.8223 22.6083 91.8223 24.025C91.8223 25.4417 91.5389 26.7 90.9723 27.8C90.4223 28.8833 89.6639 29.725 88.6973 30.325C87.7473 30.925 86.6806 31.225 85.4973 31.225C84.4806 31.225 83.5806 31.0167 82.7973 30.6C82.0306 30.1833 81.4056 29.6583 80.9223 29.025V37.6H77.4223V17.15H80.9223V19.15ZM88.2473 24.025C88.2473 23.1917 88.0723 22.475 87.7223 21.875C87.3889 21.2583 86.9389 20.7917 86.3723 20.475C85.8223 20.1583 85.2223 20 84.5723 20C83.9389 20 83.3389 20.1667 82.7723 20.5C82.2223 20.8167 81.7723 21.2833 81.4223 21.9C81.0889 22.5167 80.9223 23.2417 80.9223 24.075C80.9223 24.9083 81.0889 25.6333 81.4223 26.25C81.7723 26.8667 82.2223 27.3417 82.7723 27.675C83.3389 27.9917 83.9389 28.15 84.5723 28.15C85.2223 28.15 85.8223 27.9833 86.3723 27.65C86.9389 27.3167 87.3889 26.8417 87.7223 26.225C88.0723 25.6083 88.2473 24.875 88.2473 24.025ZM117.523 16.95C119.223 16.95 120.589 17.475 121.623 18.525C122.673 19.5583 123.198 21.0083 123.198 22.875V31H119.698V23.35C119.698 22.2667 119.423 21.4417 118.873 20.875C118.323 20.2917 117.573 20 116.623 20C115.673 20 114.914 20.2917 114.348 20.875C113.798 21.4417 113.523 22.2667 113.523 23.35V31H110.023V23.35C110.023 22.2667 109.748 21.4417 109.198 20.875C108.648 20.2917 107.898 20 106.948 20C105.981 20 105.214 20.2917 104.648 20.875C104.098 21.4417 103.823 22.2667 103.823 23.35V31H100.323V17.15H103.823V18.825C104.273 18.2417 104.848 17.7833 105.548 17.45C106.264 17.1167 107.048 16.95 107.898 16.95C108.981 16.95 109.948 17.1833 110.798 17.65C111.648 18.1 112.306 18.75 112.773 19.6C113.223 18.8 113.873 18.1583 114.723 17.675C115.589 17.1917 116.523 16.95 117.523 16.95ZM132.669 31.225C131.336 31.225 130.136 30.9333 129.069 30.35C128.002 29.75 127.161 28.9083 126.544 27.825C125.944 26.7417 125.644 25.4917 125.644 24.075C125.644 22.6583 125.952 21.4083 126.569 20.325C127.202 19.2417 128.061 18.4083 129.144 17.825C130.227 17.225 131.436 16.925 132.769 16.925C134.102 16.925 135.311 17.225 136.394 17.825C137.477 18.4083 138.327 19.2417 138.944 20.325C139.577 21.4083 139.894 22.6583 139.894 24.075C139.894 25.4917 139.569 26.7417 138.919 27.825C138.286 28.9083 137.419 29.75 136.319 30.35C135.236 30.9333 134.019 31.225 132.669 31.225ZM132.669 28.175C133.302 28.175 133.894 28.025 134.444 27.725C135.011 27.4083 135.461 26.9417 135.794 26.325C136.127 25.7083 136.294 24.9583 136.294 24.075C136.294 22.7583 135.944 21.75 135.244 21.05C134.561 20.3333 133.719 19.975 132.719 19.975C131.719 19.975 130.877 20.3333 130.194 21.05C129.527 21.75 129.194 22.7583 129.194 24.075C129.194 25.3917 129.519 26.4083 130.169 27.125C130.836 27.825 131.669 28.175 132.669 28.175ZM150.136 16.95C151.786 16.95 153.12 17.475 154.136 18.525C155.153 19.5583 155.661 21.0083 155.661 22.875V31H152.161V23.35C152.161 22.25 151.886 21.4083 151.336 20.825C150.786 20.225 150.036 19.925 149.086 19.925C148.12 19.925 147.353 20.225 146.786 20.825C146.236 21.4083 145.961 22.25 145.961 23.35V31H142.461V17.15H145.961V18.875C146.428 18.275 147.02 17.8083 147.736 17.475C148.47 17.125 149.27 16.95 150.136 16.95ZM171.865 23.775C171.865 24.275 171.831 24.725 171.765 25.125H161.64C161.723 26.125 162.073 26.9083 162.69 27.475C163.306 28.0417 164.065 28.325 164.965 28.325C166.265 28.325 167.19 27.7667 167.74 26.65H171.515C171.115 27.9833 170.348 29.0833 169.215 29.95C168.081 30.8 166.69 31.225 165.04 31.225C163.706 31.225 162.506 30.9333 161.44 30.35C160.39 29.75 159.565 28.9083 158.965 27.825C158.381 26.7417 158.09 25.4917 158.09 24.075C158.09 22.6417 158.381 21.3833 158.965 20.3C159.548 19.2167 160.365 18.3833 161.415 17.8C162.465 17.2167 163.673 16.925 165.04 16.925C166.356 16.925 167.531 17.2083 168.565 17.775C169.615 18.3417 170.423 19.15 170.99 20.2C171.573 21.2333 171.865 22.425 171.865 23.775ZM168.24 22.775C168.223 21.875 167.898 21.1583 167.265 20.625C166.631 20.075 165.856 19.8 164.94 19.8C164.073 19.8 163.34 20.0667 162.74 20.6C162.156 21.1167 161.798 21.8417 161.665 22.775H168.24ZM187.669 17.15L179.094 37.55H175.369L178.369 30.65L172.819 17.15H176.744L180.319 26.825L183.944 17.15H187.669Z" fill="white"/>
<defs>
<clipPath id="clip0_35212_417">
<rect width="27.4286" height="27.4286" fill="white" transform="translate(6.85715 12.8571)"/>
</clipPath>
</defs>
</svg>
